#N canvas 131 33 1309 788 10;
#X obj 678 81 openpanel;
#X obj 678 56 bng 15 250 50 0 empty empty Open_file... 17 7 0 10 -262144
-1 -1;
#X floatatom 678 162 10 0 0 0 samples_n - -;
#N canvas 0 22 450 278 (subpatch) 0;
#X array channelL 83840 float 2;
#X coords 0 1 83840 -1 200 140 1 0 0;
#X restore 191 62 graph;
#X obj 678 187 s file_size;
#X obj 192 386 hsl 195 15 0.05 0.95 1 0 empty empty grain_lenght -2
-8 0 10 -262144 -1 -1 13701 1;
#X floatatom 426 427 5 0 0 0 ms - -;
#X obj 192 450 hsl 195 15 0.05 2 1 0 empty empty playback_speed -2
-8 0 10 -262144 -1 -1 10936 1;
#X obj 192 517 hsl 195 15 0 20 0 0 empty empty grain_frequency_rate
-2 -8 0 10 -262144 -1 -1 4850 1;
#X floatatom 389 532 5 0 0 0 Hz - -;
#X msg 138 501 5;
#X obj 193 224 hsl 195 15 0 0.999 0 0 empty empty sample_start -2 -8
0 10 -262144 -1 -1 0 1;
#X obj 193 278 hsl 195 15 0.001 1 0 0 empty empty sample_end -2 -8
0 10 -262144 -1 -1 19400 1;
#X obj 190 243 s range_start;
#X obj 37 201 loadbang;
#X msg 139 261 1;
#X obj 190 300 s range_limit;
#N canvas 0 22 450 278 (subpatch) 0;
#X array channelR 83840 float 2;
#X coords 0 1 83840 -1 200 140 1 0 0;
#X restore 401 62 graph;
#X obj 626 230 catch~ Lout;
#X obj 709 229 catch~ Rout;
#N canvas 0 22 450 278 (subpatch) 0;
#X array wave 100 float 0;
#X coords 0 1 99 -1 200 140 1 0 0;
#X restore 829 451 graph;
#X msg 1076 130 \; channelL normalize;
#X msg 1076 164 \; channelR normalize;
#X obj 774 148 unpack f f f;
#X obj 678 132 soundfiler;
#X obj 748 295 *~ 0;
#X msg 843 217 1;
#X msg 889 217 0;
#X obj 843 189 sel 1 2;
#X text 915 216 route channelL to R if wav is mono;
#X obj 190 568 hsl 195 15 0.1 1 0 0 empty empty rise_and_fall_time
-2 -8 0 10 -262144 -1 -1 2156 1;
#X floatatom 387 606 5 0 0 1 ms - -;
#X obj 906 56 tgl 15 0 empty empty start/stop_recording 17 7 0 10 -262144
-1 -1 0 1;
#N canvas 71 108 450 300 relative_risefall 0;
#X obj 133 101 inlet;
#X obj 148 144 r lenght;
#X obj 148 166 * 1000;
#X obj 133 206 *;
#X obj 133 225 / 2;
#X obj 133 248 outlet;
#X obj 201 241 s risefall;
#X obj 77 182 t b f;
#X connect 0 0 3 0;
#X connect 1 0 2 0;
#X connect 2 0 7 0;
#X connect 3 0 4 0;
#X connect 4 0 5 0;
#X connect 4 0 6 0;
#X connect 7 0 3 0;
#X connect 7 1 3 1;
#X restore 187 590 pd relative_risefall;
#N canvas 307 76 501 353 relative_lenght 0;
#X obj 233 108 inlet;
#X obj 233 179 *;
#X obj 295 119 r freq_rate;
#X floatatom 233 215 5 0 0 0 - - -;
#X obj 250 145 t b f;
#X obj 283 258 s lenght;
#X obj 233 273 outlet;
#X obj 283 230 / 1000;
#X connect 0 0 1 0;
#X connect 1 0 3 0;
#X connect 2 0 4 0;
#X connect 3 0 6 0;
#X connect 3 0 7 0;
#X connect 4 0 1 0;
#X connect 4 1 1 1;
#X connect 7 0 5 0;
#X restore 227 410 pd relative_lenght;
#X obj 138 434 f;
#X floatatom 426 489 5 0 0 0 ms - -;
#N canvas 579 29 600 441 relative_playback_speed 0;
#X obj 233 108 inlet;
#X obj 233 179 *;
#X obj 295 119 r freq_rate;
#X floatatom 233 215 5 0 0 0 - - -;
#X obj 250 145 t b f;
#X obj 283 230 / 1000;
#X obj 283 258 s speed;
#X obj 263 410 outlet;
#X connect 0 0 1 0;
#X connect 1 0 3 0;
#X connect 2 0 4 0;
#X connect 3 0 5 0;
#X connect 3 0 7 0;
#X connect 4 0 1 0;
#X connect 4 1 1 1;
#X connect 5 0 6 0;
#X restore 189 473 pd relative_playback_speed;
#X msg 139 374 0.4;
#X text 1832 652 ///;
#X msg 678 107 read -resize \$1 channelL channelR;
#N canvas 61 95 834 633 sample 0;
#X obj 276 178 sel 1;
#X msg 303 289 stop;
#X obj 384 352 adc~;
#X msg 348 238 open sample.wav \, start;
#X obj 348 385 writesf~ 2;
#X obj 419 273 delay 6000;
#X obj 378 257 t b;
#X msg 419 314 0;
#X text 453 312 autostop 6000 ms;
#X obj 290 362 t b;
#X msg 290 460 read -resize sample.wav channelL channelR;
#X obj 290 512 outlet;
#X obj 276 138 inlet;
#X obj 454 353 outlet;
#X connect 0 0 3 0;
#X connect 0 1 1 0;
#X connect 1 0 4 0;
#X connect 1 0 5 0;
#X connect 1 0 9 0;
#X connect 2 0 4 0;
#X connect 2 1 4 1;
#X connect 3 0 4 0;
#X connect 3 0 6 0;
#X connect 5 0 1 0;
#X connect 5 0 7 0;
#X connect 6 0 5 0;
#X connect 7 0 13 0;
#X connect 9 0 10 0;
#X connect 10 0 11 0;
#X connect 12 0 0 0;
#X restore 906 116 pd sample recorder;
#X text 189 24 SAMPLE;
#X obj 893 359 tabwrite~ wave;
#X obj 1073 33 loadbang;
#X obj 1073 89 s max_lenght;
#X msg 1073 61 44100;
#X obj 442 600 s freq_rate;
#X obj 442 547 expr 1000 / $f1;
#X floatatom 442 572 5 0 0 0 ms - -;
#X obj 37 227 t b b;
#X obj 40 501 t b;
#X obj 40 471 r file_size;
#X obj 190 652 hsl 195 15 0 0.9 0 0 empty empty vol -2 -8 0 10 -262144
-1 -1 19400 1;
#X obj 399 654 tgl 15 0 empty empty dsp 17 7 0 10 -262144 -1 -1 1 1
;
#X obj 438 638 loadbang;
#X msg 510 686 \; pd dsp 1;
#X msg 437 694 \; pd dsp 0;
#X obj 437 669 moses 1;
#X msg 187 679 \$1 20;
#X obj 187 703 line~;
#X obj 626 369 dac~;
#X obj 187 729 s~ vol;
#X obj 556 282 r~ vol;
#X obj 708 331 *~;
#X obj 626 330 *~;
#X text 1073 7 grain max lenght;
#X obj 893 327 metro 50;
#X obj 893 300 tgl 15 0 empty empty empty 17 7 0 10 -262144 -1 -1 1
1;
#X msg 133 552 0.2;
#X obj 626 263 *~ 0.2;
#X obj 709 262 *~ 0.2;
#N canvas 159 93 1195 598 grain 0;
#X obj 318 135 > 0;
#X obj 368 135 > 1;
#X obj 416 135 > 2;
#X obj 461 135 > 3;
#X obj 503 135 > 4;
#X obj 544 140 > 5;
#X obj 593 140 > 6;
#X obj 641 140 > 7;
#X obj 686 140 > 8;
#X obj 728 140 > 9;
#X obj 794 135 > 10;
#X obj 844 135 > 11;
#X obj 892 135 > 12;
#X obj 940 135 > 13;
#X obj 990 135 > 14;
#X obj 318 171 change;
#X obj 366 172 change;
#X obj 416 172 change;
#X obj 459 172 change;
#X obj 503 171 change;
#X obj 550 172 change;
#X obj 594 174 change;
#X obj 639 172 change;
#X obj 686 175 change;
#X obj 731 176 change;
#X obj 796 176 change;
#X obj 844 177 change;
#X obj 894 177 change;
#X obj 955 172 change;
#X obj 999 171 change;
#X obj 1058 171 change;
#X obj 1043 134 > 15;
#X obj 287 333 tgl 15 0 empty empty empty 17 7 0 10 -262144 -1 -1 1
1;
#N canvas 39 23 1241 755 grain 0;
#X obj 79 420 line~;
#X obj 97 227 *;
#X obj 129 211 r file_size;
#X floatatom 97 258 10 0 0 0 - - -;
#X obj 79 151 bng 15 250 50 0 empty empty empty 17 7 0 10 -262144 -1
-1;
#X obj 266 186 r max_lenght;
#X obj 251 211 *;
#X obj 251 142 r lenght;
#X floatatom 251 239 10 0 0 1 - - -;
#X obj 79 325 i;
#X obj 251 269 t b f;
#X obj 230 299 +;
#X floatatom 230 325 10 0 0 0 - - -;
#X obj 212 354 i;
#X obj 212 148 bng 15 250 50 0 empty empty empty 17 7 0 10 -262144
-1 -1;
#X obj 212 383 pack 0 0;
#X obj 373 279 r speed;
#X obj 373 309 * 1000;
#X floatatom 364 356 10 0 0 0 - - -;
#X obj 364 148 bng 15 250 50 0 empty empty empty 17 7 0 10 -262144
-1 -1;
#X obj 82 83 t b b b b;
#X obj 212 411 t b;
#X text 488 521 /// envelope;
#X floatatom 441 289 5 0 0 0 - - -;
#X obj 441 256 / 44.1;
#X obj 79 624 *~;
#X obj 698 354 hsl 195 15 0 1 0 0 empty empty grain_position -2 -8
0 10 -262144 -1 -1 9525 1;
#X obj 694 67 metro;
#X obj 694 140 random 1000;
#X obj 694 236 / 1000;
#X obj 788 26 r freq_rate;
#X obj 800 78 r range_start;
#X obj 800 107 * 1000;
#X obj 800 131 t f f;
#X floatatom 752 253 5 0 0 0 - - -;
#X obj 694 193 + 0;
#X obj 890 102 r range_limit;
#X obj 960 124 * 1000;
#X obj 828 175 expr $f2 - $f1;
#X obj 890 134 t b;
#X obj 694 18 inlet;
#X obj 694 42 t a;
#X obj 79 466 tabread4~ channelL;
#X obj 221 466 tabread4~ channelR;
#X obj 79 692 throw~ Lout;
#X obj 221 624 *~;
#X obj 221 692 throw~ Rout;
#X obj 582 591 vline~;
#X obj 582 498 i;
#X floatatom 842 440 5 1 1000 0 rise_and_fall_ms - -;
#X obj 597 455 expr $f1 - $f2;
#X obj 688 502 i;
#X obj 582 536 pack f f;
#X floatatom 634 486 5 0 0 0 - - -;
#X msg 582 559 1 \$1 \, 0 \$1 \$2;
#X obj 842 411 r risefall;
#X connect 0 0 42 0;
#X connect 0 0 43 0;
#X connect 1 0 3 0;
#X connect 2 0 1 1;
#X connect 3 0 9 1;
#X connect 3 0 11 0;
#X connect 4 0 9 0;
#X connect 5 0 6 1;
#X connect 6 0 8 0;
#X connect 7 0 6 0;
#X connect 8 0 10 0;
#X connect 8 0 24 0;
#X connect 9 0 0 0;
#X connect 10 0 11 0;
#X connect 10 1 11 1;
#X connect 11 0 12 0;
#X connect 12 0 13 1;
#X connect 13 0 15 0;
#X connect 14 0 13 0;
#X connect 15 0 0 0;
#X connect 15 0 21 0;
#X connect 16 0 17 0;
#X connect 17 0 18 0;
#X connect 18 0 15 1;
#X connect 19 0 18 0;
#X connect 20 0 14 0;
#X connect 20 1 19 0;
#X connect 20 2 4 0;
#X connect 20 3 48 0;
#X connect 20 3 51 0;
#X connect 23 0 50 0;
#X connect 24 0 23 0;
#X connect 25 0 44 0;
#X connect 26 0 1 0;
#X connect 27 0 28 0;
#X connect 27 0 20 0;
#X connect 28 0 35 0;
#X connect 29 0 34 0;
#X connect 29 0 26 0;
#X connect 30 0 27 1;
#X connect 31 0 32 0;
#X connect 32 0 33 0;
#X connect 33 0 35 1;
#X connect 33 1 38 0;
#X connect 35 0 29 0;
#X connect 36 0 37 0;
#X connect 36 0 39 0;
#X connect 37 0 38 1;
#X connect 38 0 28 1;
#X connect 39 0 38 0;
#X connect 40 0 41 0;
#X connect 41 0 27 0;
#X connect 42 0 25 0;
#X connect 43 0 45 0;
#X connect 45 0 46 0;
#X connect 47 0 45 1;
#X connect 47 0 25 1;
#X connect 48 0 52 1;
#X connect 49 0 50 1;
#X connect 49 0 51 1;
#X connect 50 0 48 1;
#X connect 50 0 53 0;
#X connect 51 0 52 0;
#X connect 52 0 54 0;
#X connect 54 0 47 0;
#X connect 55 0 49 0;
#X restore 287 358 pd grain;
#X obj 347 333 tgl 15 0 empty empty empty 17 7 0 10 -262144 -1 -1 0
1;
#N canvas 39 23 1241 755 grain 0;
#X obj 79 420 line~;
#X obj 97 227 *;
#X obj 129 211 r file_size;
#X floatatom 97 258 10 0 0 0 - - -;
#X obj 79 151 bng 15 250 50 0 empty empty empty 17 7 0 10 -262144 -1
-1;
#X obj 266 186 r max_lenght;
#X obj 251 211 *;
#X obj 251 142 r lenght;
#X floatatom 251 239 10 0 0 1 - - -;
#X obj 79 325 i;
#X obj 251 269 t b f;
#X obj 230 299 +;
#X floatatom 230 325 10 0 0 0 - - -;
#X obj 212 354 i;
#X obj 212 148 bng 15 250 50 0 empty empty empty 17 7 0 10 -262144
-1 -1;
#X obj 212 383 pack 0 0;
#X obj 373 279 r speed;
#X obj 373 309 * 1000;
#X floatatom 364 356 10 0 0 0 - - -;
#X obj 364 148 bng 15 250 50 0 empty empty empty 17 7 0 10 -262144
-1 -1;
#X obj 82 83 t b b b b;
#X obj 212 411 t b;
#X text 488 521 /// envelope;
#X floatatom 441 289 5 0 0 0 - - -;
#X obj 441 256 / 44.1;
#X obj 79 624 *~;
#X obj 698 354 hsl 195 15 0 1 0 0 empty empty grain_position -2 -8
0 10 -262144 -1 -1 0 1;
#X obj 694 67 metro;
#X obj 694 140 random 1000;
#X obj 694 236 / 1000;
#X obj 788 26 r freq_rate;
#X obj 800 78 r range_start;
#X obj 800 107 * 1000;
#X obj 800 131 t f f;
#X floatatom 752 253 5 0 0 0 - - -;
#X obj 694 193 + 0;
#X obj 890 102 r range_limit;
#X obj 960 124 * 1000;
#X obj 828 175 expr $f2 - $f1;
#X obj 890 134 t b;
#X obj 694 18 inlet;
#X obj 694 42 t a;
#X obj 79 466 tabread4~ channelL;
#X obj 221 466 tabread4~ channelR;
#X obj 79 692 throw~ Lout;
#X obj 221 624 *~;
#X obj 221 692 throw~ Rout;
#X obj 582 591 vline~;
#X obj 582 498 i;
#X floatatom 842 440 5 1 1000 0 rise_and_fall_ms - -;
#X obj 597 455 expr $f1 - $f2;
#X obj 688 502 i;
#X obj 582 536 pack f f;
#X floatatom 634 486 5 0 0 0 - - -;
#X msg 582 559 1 \$1 \, 0 \$1 \$2;
#X obj 842 411 r risefall;
#X connect 0 0 42 0;
#X connect 0 0 43 0;
#X connect 1 0 3 0;
#X connect 2 0 1 1;
#X connect 3 0 9 1;
#X connect 3 0 11 0;
#X connect 4 0 9 0;
#X connect 5 0 6 1;
#X connect 6 0 8 0;
#X connect 7 0 6 0;
#X connect 8 0 10 0;
#X connect 8 0 24 0;
#X connect 9 0 0 0;
#X connect 10 0 11 0;
#X connect 10 1 11 1;
#X connect 11 0 12 0;
#X connect 12 0 13 1;
#X connect 13 0 15 0;
#X connect 14 0 13 0;
#X connect 15 0 0 0;
#X connect 15 0 21 0;
#X connect 16 0 17 0;
#X connect 17 0 18 0;
#X connect 18 0 15 1;
#X connect 19 0 18 0;
#X connect 20 0 14 0;
#X connect 20 1 19 0;
#X connect 20 2 4 0;
#X connect 20 3 48 0;
#X connect 20 3 51 0;
#X connect 23 0 50 0;
#X connect 24 0 23 0;
#X connect 25 0 44 0;
#X connect 26 0 1 0;
#X connect 27 0 28 0;
#X connect 27 0 20 0;
#X connect 28 0 35 0;
#X connect 29 0 34 0;
#X connect 29 0 26 0;
#X connect 30 0 27 1;
#X connect 31 0 32 0;
#X connect 32 0 33 0;
#X connect 33 0 35 1;
#X connect 33 1 38 0;
#X connect 35 0 29 0;
#X connect 36 0 37 0;
#X connect 36 0 39 0;
#X connect 37 0 38 1;
#X connect 38 0 28 1;
#X connect 39 0 38 0;
#X connect 40 0 41 0;
#X connect 41 0 27 0;
#X connect 42 0 25 0;
#X connect 43 0 45 0;
#X connect 45 0 46 0;
#X connect 47 0 45 1;
#X connect 47 0 25 1;
#X connect 48 0 52 1;
#X connect 49 0 50 1;
#X connect 49 0 51 1;
#X connect 50 0 48 1;
#X connect 50 0 53 0;
#X connect 51 0 52 0;
#X connect 52 0 54 0;
#X connect 54 0 47 0;
#X connect 55 0 49 0;
#X restore 347 358 pd grain;
#X obj 407 333 tgl 15 0 empty empty empty 17 7 0 10 -262144 -1 -1 0
1;
#N canvas 39 23 1241 755 grain 0;
#X obj 79 420 line~;
#X obj 97 227 *;
#X obj 129 211 r file_size;
#X floatatom 97 258 10 0 0 0 - - -;
#X obj 79 151 bng 15 250 50 0 empty empty empty 17 7 0 10 -262144 -1
-1;
#X obj 266 186 r max_lenght;
#X obj 251 211 *;
#X obj 251 142 r lenght;
#X floatatom 251 239 10 0 0 1 - - -;
#X obj 79 325 i;
#X obj 251 269 t b f;
#X obj 230 299 +;
#X floatatom 230 325 10 0 0 0 - - -;
#X obj 212 354 i;
#X obj 212 148 bng 15 250 50 0 empty empty empty 17 7 0 10 -262144
-1 -1;
#X obj 212 383 pack 0 0;
#X obj 373 279 r speed;
#X obj 373 309 * 1000;
#X floatatom 364 356 10 0 0 0 - - -;
#X obj 364 148 bng 15 250 50 0 empty empty empty 17 7 0 10 -262144
-1 -1;
#X obj 82 83 t b b b b;
#X obj 212 411 t b;
#X text 488 521 /// envelope;
#X floatatom 441 289 5 0 0 0 - - -;
#X obj 441 256 / 44.1;
#X obj 79 624 *~;
#X obj 698 354 hsl 195 15 0 1 0 0 empty empty grain_position -2 -8
0 10 -262144 -1 -1 0 1;
#X obj 694 67 metro;
#X obj 694 140 random 1000;
#X obj 694 236 / 1000;
#X obj 788 26 r freq_rate;
#X obj 800 78 r range_start;
#X obj 800 107 * 1000;
#X obj 800 131 t f f;
#X floatatom 752 253 5 0 0 0 - - -;
#X obj 694 193 + 0;
#X obj 890 102 r range_limit;
#X obj 960 124 * 1000;
#X obj 828 175 expr $f2 - $f1;
#X obj 890 134 t b;
#X obj 694 18 inlet;
#X obj 694 42 t a;
#X obj 79 466 tabread4~ channelL;
#X obj 221 466 tabread4~ channelR;
#X obj 79 692 throw~ Lout;
#X obj 221 624 *~;
#X obj 221 692 throw~ Rout;
#X obj 582 591 vline~;
#X obj 582 498 i;
#X floatatom 842 440 5 1 1000 0 rise_and_fall_ms - -;
#X obj 597 455 expr $f1 - $f2;
#X obj 688 502 i;
#X obj 582 536 pack f f;
#X floatatom 634 486 5 0 0 0 - - -;
#X msg 582 559 1 \$1 \, 0 \$1 \$2;
#X obj 842 411 r risefall;
#X connect 0 0 42 0;
#X connect 0 0 43 0;
#X connect 1 0 3 0;
#X connect 2 0 1 1;
#X connect 3 0 9 1;
#X connect 3 0 11 0;
#X connect 4 0 9 0;
#X connect 5 0 6 1;
#X connect 6 0 8 0;
#X connect 7 0 6 0;
#X connect 8 0 10 0;
#X connect 8 0 24 0;
#X connect 9 0 0 0;
#X connect 10 0 11 0;
#X connect 10 1 11 1;
#X connect 11 0 12 0;
#X connect 12 0 13 1;
#X connect 13 0 15 0;
#X connect 14 0 13 0;
#X connect 15 0 0 0;
#X connect 15 0 21 0;
#X connect 16 0 17 0;
#X connect 17 0 18 0;
#X connect 18 0 15 1;
#X connect 19 0 18 0;
#X connect 20 0 14 0;
#X connect 20 1 19 0;
#X connect 20 2 4 0;
#X connect 20 3 48 0;
#X connect 20 3 51 0;
#X connect 23 0 50 0;
#X connect 24 0 23 0;
#X connect 25 0 44 0;
#X connect 26 0 1 0;
#X connect 27 0 28 0;
#X connect 27 0 20 0;
#X connect 28 0 35 0;
#X connect 29 0 34 0;
#X connect 29 0 26 0;
#X connect 30 0 27 1;
#X connect 31 0 32 0;
#X connect 32 0 33 0;
#X connect 33 0 35 1;
#X connect 33 1 38 0;
#X connect 35 0 29 0;
#X connect 36 0 37 0;
#X connect 36 0 39 0;
#X connect 37 0 38 1;
#X connect 38 0 28 1;
#X connect 39 0 38 0;
#X connect 40 0 41 0;
#X connect 41 0 27 0;
#X connect 42 0 25 0;
#X connect 43 0 45 0;
#X connect 45 0 46 0;
#X connect 47 0 45 1;
#X connect 47 0 25 1;
#X connect 48 0 52 1;
#X connect 49 0 50 1;
#X connect 49 0 51 1;
#X connect 50 0 48 1;
#X connect 50 0 53 0;
#X connect 51 0 52 0;
#X connect 52 0 54 0;
#X connect 54 0 47 0;
#X connect 55 0 49 0;
#X restore 407 358 pd grain;
#X obj 467 333 tgl 15 0 empty empty empty 17 7 0 10 -262144 -1 -1 0
1;
#N canvas 39 23 1241 755 grain 0;
#X obj 79 420 line~;
#X obj 97 227 *;
#X obj 129 211 r file_size;
#X floatatom 97 258 10 0 0 0 - - -;
#X obj 79 151 bng 15 250 50 0 empty empty empty 17 7 0 10 -262144 -1
-1;
#X obj 266 186 r max_lenght;
#X obj 251 211 *;
#X obj 251 142 r lenght;
#X floatatom 251 239 10 0 0 1 - - -;
#X obj 79 325 i;
#X obj 251 269 t b f;
#X obj 230 299 +;
#X floatatom 230 325 10 0 0 0 - - -;
#X obj 212 354 i;
#X obj 212 148 bng 15 250 50 0 empty empty empty 17 7 0 10 -262144
-1 -1;
#X obj 212 383 pack 0 0;
#X obj 373 279 r speed;
#X obj 373 309 * 1000;
#X floatatom 364 356 10 0 0 0 - - -;
#X obj 364 148 bng 15 250 50 0 empty empty empty 17 7 0 10 -262144
-1 -1;
#X obj 82 83 t b b b b;
#X obj 212 411 t b;
#X text 488 521 /// envelope;
#X floatatom 441 289 5 0 0 0 - - -;
#X obj 441 256 / 44.1;
#X obj 79 624 *~;
#X obj 698 354 hsl 195 15 0 1 0 0 empty empty grain_position -2 -8
0 10 -262144 -1 -1 0 1;
#X obj 694 67 metro;
#X obj 694 140 random 1000;
#X obj 694 236 / 1000;
#X obj 788 26 r freq_rate;
#X obj 800 78 r range_start;
#X obj 800 107 * 1000;
#X obj 800 131 t f f;
#X floatatom 752 253 5 0 0 0 - - -;
#X obj 694 193 + 0;
#X obj 890 102 r range_limit;
#X obj 960 124 * 1000;
#X obj 828 175 expr $f2 - $f1;
#X obj 890 134 t b;
#X obj 694 18 inlet;
#X obj 694 42 t a;
#X obj 79 466 tabread4~ channelL;
#X obj 221 466 tabread4~ channelR;
#X obj 79 692 throw~ Lout;
#X obj 221 624 *~;
#X obj 221 692 throw~ Rout;
#X obj 582 591 vline~;
#X obj 582 498 i;
#X floatatom 842 440 5 1 1000 0 rise_and_fall_ms - -;
#X obj 597 455 expr $f1 - $f2;
#X obj 688 502 i;
#X obj 582 536 pack f f;
#X floatatom 634 486 5 0 0 0 - - -;
#X msg 582 559 1 \$1 \, 0 \$1 \$2;
#X obj 842 411 r risefall;
#X connect 0 0 42 0;
#X connect 0 0 43 0;
#X connect 1 0 3 0;
#X connect 2 0 1 1;
#X connect 3 0 9 1;
#X connect 3 0 11 0;
#X connect 4 0 9 0;
#X connect 5 0 6 1;
#X connect 6 0 8 0;
#X connect 7 0 6 0;
#X connect 8 0 10 0;
#X connect 8 0 24 0;
#X connect 9 0 0 0;
#X connect 10 0 11 0;
#X connect 10 1 11 1;
#X connect 11 0 12 0;
#X connect 12 0 13 1;
#X connect 13 0 15 0;
#X connect 14 0 13 0;
#X connect 15 0 0 0;
#X connect 15 0 21 0;
#X connect 16 0 17 0;
#X connect 17 0 18 0;
#X connect 18 0 15 1;
#X connect 19 0 18 0;
#X connect 20 0 14 0;
#X connect 20 1 19 0;
#X connect 20 2 4 0;
#X connect 20 3 48 0;
#X connect 20 3 51 0;
#X connect 23 0 50 0;
#X connect 24 0 23 0;
#X connect 25 0 44 0;
#X connect 26 0 1 0;
#X connect 27 0 28 0;
#X connect 27 0 20 0;
#X connect 28 0 35 0;
#X connect 29 0 34 0;
#X connect 29 0 26 0;
#X connect 30 0 27 1;
#X connect 31 0 32 0;
#X connect 32 0 33 0;
#X connect 33 0 35 1;
#X connect 33 1 38 0;
#X connect 35 0 29 0;
#X connect 36 0 37 0;
#X connect 36 0 39 0;
#X connect 37 0 38 1;
#X connect 38 0 28 1;
#X connect 39 0 38 0;
#X connect 40 0 41 0;
#X connect 41 0 27 0;
#X connect 42 0 25 0;
#X connect 43 0 45 0;
#X connect 45 0 46 0;
#X connect 47 0 45 1;
#X connect 47 0 25 1;
#X connect 48 0 52 1;
#X connect 49 0 50 1;
#X connect 49 0 51 1;
#X connect 50 0 48 1;
#X connect 50 0 53 0;
#X connect 51 0 52 0;
#X connect 52 0 54 0;
#X connect 54 0 47 0;
#X connect 55 0 49 0;
#X restore 467 358 pd grain;
#X obj 527 333 tgl 15 0 empty empty empty 17 7 0 10 -262144 -1 -1 0
1;
#N canvas 39 23 1241 755 grain 0;
#X obj 79 420 line~;
#X obj 97 227 *;
#X obj 129 211 r file_size;
#X floatatom 97 258 10 0 0 0 - - -;
#X obj 79 151 bng 15 250 50 0 empty empty empty 17 7 0 10 -262144 -1
-1;
#X obj 266 186 r max_lenght;
#X obj 251 211 *;
#X obj 251 142 r lenght;
#X floatatom 251 239 10 0 0 1 - - -;
#X obj 79 325 i;
#X obj 251 269 t b f;
#X obj 230 299 +;
#X floatatom 230 325 10 0 0 0 - - -;
#X obj 212 354 i;
#X obj 212 148 bng 15 250 50 0 empty empty empty 17 7 0 10 -262144
-1 -1;
#X obj 212 383 pack 0 0;
#X obj 373 279 r speed;
#X obj 373 309 * 1000;
#X floatatom 364 356 10 0 0 0 - - -;
#X obj 364 148 bng 15 250 50 0 empty empty empty 17 7 0 10 -262144
-1 -1;
#X obj 82 83 t b b b b;
#X obj 212 411 t b;
#X text 488 521 /// envelope;
#X floatatom 441 289 5 0 0 0 - - -;
#X obj 441 256 / 44.1;
#X obj 79 624 *~;
#X obj 698 354 hsl 195 15 0 1 0 0 empty empty grain_position -2 -8
0 10 -262144 -1 -1 0 1;
#X obj 694 67 metro;
#X obj 694 140 random 1000;
#X obj 694 236 / 1000;
#X obj 788 26 r freq_rate;
#X obj 800 78 r range_start;
#X obj 800 107 * 1000;
#X obj 800 131 t f f;
#X floatatom 752 253 5 0 0 0 - - -;
#X obj 694 193 + 0;
#X obj 890 102 r range_limit;
#X obj 960 124 * 1000;
#X obj 828 175 expr $f2 - $f1;
#X obj 890 134 t b;
#X obj 694 18 inlet;
#X obj 694 42 t a;
#X obj 79 466 tabread4~ channelL;
#X obj 221 466 tabread4~ channelR;
#X obj 79 692 throw~ Lout;
#X obj 221 624 *~;
#X obj 221 692 throw~ Rout;
#X obj 582 591 vline~;
#X obj 582 498 i;
#X floatatom 842 440 5 1 1000 0 rise_and_fall_ms - -;
#X obj 597 455 expr $f1 - $f2;
#X obj 688 502 i;
#X obj 582 536 pack f f;
#X floatatom 634 486 5 0 0 0 - - -;
#X msg 582 559 1 \$1 \, 0 \$1 \$2;
#X obj 842 411 r risefall;
#X connect 0 0 42 0;
#X connect 0 0 43 0;
#X connect 1 0 3 0;
#X connect 2 0 1 1;
#X connect 3 0 9 1;
#X connect 3 0 11 0;
#X connect 4 0 9 0;
#X connect 5 0 6 1;
#X connect 6 0 8 0;
#X connect 7 0 6 0;
#X connect 8 0 10 0;
#X connect 8 0 24 0;
#X connect 9 0 0 0;
#X connect 10 0 11 0;
#X connect 10 1 11 1;
#X connect 11 0 12 0;
#X connect 12 0 13 1;
#X connect 13 0 15 0;
#X connect 14 0 13 0;
#X connect 15 0 0 0;
#X connect 15 0 21 0;
#X connect 16 0 17 0;
#X connect 17 0 18 0;
#X connect 18 0 15 1;
#X connect 19 0 18 0;
#X connect 20 0 14 0;
#X connect 20 1 19 0;
#X connect 20 2 4 0;
#X connect 20 3 48 0;
#X connect 20 3 51 0;
#X connect 23 0 50 0;
#X connect 24 0 23 0;
#X connect 25 0 44 0;
#X connect 26 0 1 0;
#X connect 27 0 28 0;
#X connect 27 0 20 0;
#X connect 28 0 35 0;
#X connect 29 0 34 0;
#X connect 29 0 26 0;
#X connect 30 0 27 1;
#X connect 31 0 32 0;
#X connect 32 0 33 0;
#X connect 33 0 35 1;
#X connect 33 1 38 0;
#X connect 35 0 29 0;
#X connect 36 0 37 0;
#X connect 36 0 39 0;
#X connect 37 0 38 1;
#X connect 38 0 28 1;
#X connect 39 0 38 0;
#X connect 40 0 41 0;
#X connect 41 0 27 0;
#X connect 42 0 25 0;
#X connect 43 0 45 0;
#X connect 45 0 46 0;
#X connect 47 0 45 1;
#X connect 47 0 25 1;
#X connect 48 0 52 1;
#X connect 49 0 50 1;
#X connect 49 0 51 1;
#X connect 50 0 48 1;
#X connect 50 0 53 0;
#X connect 51 0 52 0;
#X connect 52 0 54 0;
#X connect 54 0 47 0;
#X connect 55 0 49 0;
#X restore 527 358 pd grain;
#X obj 587 333 tgl 15 0 empty empty empty 17 7 0 10 -262144 -1 -1 0
1;
#N canvas 39 23 1241 755 grain 0;
#X obj 79 420 line~;
#X obj 97 227 *;
#X obj 129 211 r file_size;
#X floatatom 97 258 10 0 0 0 - - -;
#X obj 79 151 bng 15 250 50 0 empty empty empty 17 7 0 10 -262144 -1
-1;
#X obj 266 186 r max_lenght;
#X obj 251 211 *;
#X obj 251 142 r lenght;
#X floatatom 251 239 10 0 0 1 - - -;
#X obj 79 325 i;
#X obj 251 269 t b f;
#X obj 230 299 +;
#X floatatom 230 325 10 0 0 0 - - -;
#X obj 212 354 i;
#X obj 212 148 bng 15 250 50 0 empty empty empty 17 7 0 10 -262144
-1 -1;
#X obj 212 383 pack 0 0;
#X obj 373 279 r speed;
#X obj 373 309 * 1000;
#X floatatom 364 356 10 0 0 0 - - -;
#X obj 364 148 bng 15 250 50 0 empty empty empty 17 7 0 10 -262144
-1 -1;
#X obj 82 83 t b b b b;
#X obj 212 411 t b;
#X text 488 521 /// envelope;
#X floatatom 441 289 5 0 0 0 - - -;
#X obj 441 256 / 44.1;
#X obj 79 624 *~;
#X obj 698 354 hsl 195 15 0 1 0 0 empty empty grain_position -2 -8
0 10 -262144 -1 -1 0 1;
#X obj 694 67 metro;
#X obj 694 140 random 1000;
#X obj 694 236 / 1000;
#X obj 788 26 r freq_rate;
#X obj 800 78 r range_start;
#X obj 800 107 * 1000;
#X obj 800 131 t f f;
#X floatatom 752 253 5 0 0 0 - - -;
#X obj 694 193 + 0;
#X obj 890 102 r range_limit;
#X obj 960 124 * 1000;
#X obj 828 175 expr $f2 - $f1;
#X obj 890 134 t b;
#X obj 694 18 inlet;
#X obj 694 42 t a;
#X obj 79 466 tabread4~ channelL;
#X obj 221 466 tabread4~ channelR;
#X obj 79 692 throw~ Lout;
#X obj 221 624 *~;
#X obj 221 692 throw~ Rout;
#X obj 582 591 vline~;
#X obj 582 498 i;
#X floatatom 842 440 5 1 1000 0 rise_and_fall_ms - -;
#X obj 597 455 expr $f1 - $f2;
#X obj 688 502 i;
#X obj 582 536 pack f f;
#X floatatom 634 486 5 0 0 0 - - -;
#X msg 582 559 1 \$1 \, 0 \$1 \$2;
#X obj 842 411 r risefall;
#X connect 0 0 42 0;
#X connect 0 0 43 0;
#X connect 1 0 3 0;
#X connect 2 0 1 1;
#X connect 3 0 9 1;
#X connect 3 0 11 0;
#X connect 4 0 9 0;
#X connect 5 0 6 1;
#X connect 6 0 8 0;
#X connect 7 0 6 0;
#X connect 8 0 10 0;
#X connect 8 0 24 0;
#X connect 9 0 0 0;
#X connect 10 0 11 0;
#X connect 10 1 11 1;
#X connect 11 0 12 0;
#X connect 12 0 13 1;
#X connect 13 0 15 0;
#X connect 14 0 13 0;
#X connect 15 0 0 0;
#X connect 15 0 21 0;
#X connect 16 0 17 0;
#X connect 17 0 18 0;
#X connect 18 0 15 1;
#X connect 19 0 18 0;
#X connect 20 0 14 0;
#X connect 20 1 19 0;
#X connect 20 2 4 0;
#X connect 20 3 48 0;
#X connect 20 3 51 0;
#X connect 23 0 50 0;
#X connect 24 0 23 0;
#X connect 25 0 44 0;
#X connect 26 0 1 0;
#X connect 27 0 28 0;
#X connect 27 0 20 0;
#X connect 28 0 35 0;
#X connect 29 0 34 0;
#X connect 29 0 26 0;
#X connect 30 0 27 1;
#X connect 31 0 32 0;
#X connect 32 0 33 0;
#X connect 33 0 35 1;
#X connect 33 1 38 0;
#X connect 35 0 29 0;
#X connect 36 0 37 0;
#X connect 36 0 39 0;
#X connect 37 0 38 1;
#X connect 38 0 28 1;
#X connect 39 0 38 0;
#X connect 40 0 41 0;
#X connect 41 0 27 0;
#X connect 42 0 25 0;
#X connect 43 0 45 0;
#X connect 45 0 46 0;
#X connect 47 0 45 1;
#X connect 47 0 25 1;
#X connect 48 0 52 1;
#X connect 49 0 50 1;
#X connect 49 0 51 1;
#X connect 50 0 48 1;
#X connect 50 0 53 0;
#X connect 51 0 52 0;
#X connect 52 0 54 0;
#X connect 54 0 47 0;
#X connect 55 0 49 0;
#X restore 587 358 pd grain;
#X obj 647 333 tgl 15 0 empty empty empty 17 7 0 10 -262144 -1 -1 0
1;
#N canvas 39 23 1241 755 grain 0;
#X obj 79 420 line~;
#X obj 97 227 *;
#X obj 129 211 r file_size;
#X floatatom 97 258 10 0 0 0 - - -;
#X obj 79 151 bng 15 250 50 0 empty empty empty 17 7 0 10 -262144 -1
-1;
#X obj 266 186 r max_lenght;
#X obj 251 211 *;
#X obj 251 142 r lenght;
#X floatatom 251 239 10 0 0 1 - - -;
#X obj 79 325 i;
#X obj 251 269 t b f;
#X obj 230 299 +;
#X floatatom 230 325 10 0 0 0 - - -;
#X obj 212 354 i;
#X obj 212 148 bng 15 250 50 0 empty empty empty 17 7 0 10 -262144
-1 -1;
#X obj 212 383 pack 0 0;
#X obj 373 279 r speed;
#X obj 373 309 * 1000;
#X floatatom 364 356 10 0 0 0 - - -;
#X obj 364 148 bng 15 250 50 0 empty empty empty 17 7 0 10 -262144
-1 -1;
#X obj 82 83 t b b b b;
#X obj 212 411 t b;
#X text 488 521 /// envelope;
#X floatatom 441 289 5 0 0 0 - - -;
#X obj 441 256 / 44.1;
#X obj 79 624 *~;
#X obj 698 354 hsl 195 15 0 1 0 0 empty empty grain_position -2 -8
0 10 -262144 -1 -1 0 1;
#X obj 694 67 metro;
#X obj 694 140 random 1000;
#X obj 694 236 / 1000;
#X obj 788 26 r freq_rate;
#X obj 800 78 r range_start;
#X obj 800 107 * 1000;
#X obj 800 131 t f f;
#X floatatom 752 253 5 0 0 0 - - -;
#X obj 694 193 + 0;
#X obj 890 102 r range_limit;
#X obj 960 124 * 1000;
#X obj 828 175 expr $f2 - $f1;
#X obj 890 134 t b;
#X obj 694 18 inlet;
#X obj 694 42 t a;
#X obj 79 466 tabread4~ channelL;
#X obj 221 466 tabread4~ channelR;
#X obj 79 692 throw~ Lout;
#X obj 221 624 *~;
#X obj 221 692 throw~ Rout;
#X obj 582 591 vline~;
#X obj 582 498 i;
#X floatatom 842 440 5 1 1000 0 rise_and_fall_ms - -;
#X obj 597 455 expr $f1 - $f2;
#X obj 688 502 i;
#X obj 582 536 pack f f;
#X floatatom 634 486 5 0 0 0 - - -;
#X msg 582 559 1 \$1 \, 0 \$1 \$2;
#X obj 842 411 r risefall;
#X connect 0 0 42 0;
#X connect 0 0 43 0;
#X connect 1 0 3 0;
#X connect 2 0 1 1;
#X connect 3 0 9 1;
#X connect 3 0 11 0;
#X connect 4 0 9 0;
#X connect 5 0 6 1;
#X connect 6 0 8 0;
#X connect 7 0 6 0;
#X connect 8 0 10 0;
#X connect 8 0 24 0;
#X connect 9 0 0 0;
#X connect 10 0 11 0;
#X connect 10 1 11 1;
#X connect 11 0 12 0;
#X connect 12 0 13 1;
#X connect 13 0 15 0;
#X connect 14 0 13 0;
#X connect 15 0 0 0;
#X connect 15 0 21 0;
#X connect 16 0 17 0;
#X connect 17 0 18 0;
#X connect 18 0 15 1;
#X connect 19 0 18 0;
#X connect 20 0 14 0;
#X connect 20 1 19 0;
#X connect 20 2 4 0;
#X connect 20 3 48 0;
#X connect 20 3 51 0;
#X connect 23 0 50 0;
#X connect 24 0 23 0;
#X connect 25 0 44 0;
#X connect 26 0 1 0;
#X connect 27 0 28 0;
#X connect 27 0 20 0;
#X connect 28 0 35 0;
#X connect 29 0 34 0;
#X connect 29 0 26 0;
#X connect 30 0 27 1;
#X connect 31 0 32 0;
#X connect 32 0 33 0;
#X connect 33 0 35 1;
#X connect 33 1 38 0;
#X connect 35 0 29 0;
#X connect 36 0 37 0;
#X connect 36 0 39 0;
#X connect 37 0 38 1;
#X connect 38 0 28 1;
#X connect 39 0 38 0;
#X connect 40 0 41 0;
#X connect 41 0 27 0;
#X connect 42 0 25 0;
#X connect 43 0 45 0;
#X connect 45 0 46 0;
#X connect 47 0 45 1;
#X connect 47 0 25 1;
#X connect 48 0 52 1;
#X connect 49 0 50 1;
#X connect 49 0 51 1;
#X connect 50 0 48 1;
#X connect 50 0 53 0;
#X connect 51 0 52 0;
#X connect 52 0 54 0;
#X connect 54 0 47 0;
#X connect 55 0 49 0;
#X restore 647 358 pd grain;
#X obj 707 334 tgl 15 0 empty empty empty 17 7 0 10 -262144 -1 -1 0
1;
#N canvas 39 23 1241 755 grain 0;
#X obj 79 420 line~;
#X obj 97 227 *;
#X obj 129 211 r file_size;
#X floatatom 97 258 10 0 0 0 - - -;
#X obj 79 151 bng 15 250 50 0 empty empty empty 17 7 0 10 -262144 -1
-1;
#X obj 266 186 r max_lenght;
#X obj 251 211 *;
#X obj 251 142 r lenght;
#X floatatom 251 239 10 0 0 1 - - -;
#X obj 79 325 i;
#X obj 251 269 t b f;
#X obj 230 299 +;
#X floatatom 230 325 10 0 0 0 - - -;
#X obj 212 354 i;
#X obj 212 148 bng 15 250 50 0 empty empty empty 17 7 0 10 -262144
-1 -1;
#X obj 212 383 pack 0 0;
#X obj 373 279 r speed;
#X obj 373 309 * 1000;
#X floatatom 364 356 10 0 0 0 - - -;
#X obj 364 148 bng 15 250 50 0 empty empty empty 17 7 0 10 -262144
-1 -1;
#X obj 82 83 t b b b b;
#X obj 212 411 t b;
#X text 488 521 /// envelope;
#X floatatom 441 289 5 0 0 0 - - -;
#X obj 441 256 / 44.1;
#X obj 79 624 *~;
#X obj 698 354 hsl 195 15 0 1 0 0 empty empty grain_position -2 -8
0 10 -262144 -1 -1 0 1;
#X obj 694 67 metro;
#X obj 694 140 random 1000;
#X obj 694 236 / 1000;
#X obj 788 26 r freq_rate;
#X obj 800 78 r range_start;
#X obj 800 107 * 1000;
#X obj 800 131 t f f;
#X floatatom 752 253 5 0 0 0 - - -;
#X obj 694 193 + 0;
#X obj 890 102 r range_limit;
#X obj 960 124 * 1000;
#X obj 828 175 expr $f2 - $f1;
#X obj 890 134 t b;
#X obj 694 18 inlet;
#X obj 694 42 t a;
#X obj 79 466 tabread4~ channelL;
#X obj 221 466 tabread4~ channelR;
#X obj 79 692 throw~ Lout;
#X obj 221 624 *~;
#X obj 221 692 throw~ Rout;
#X obj 582 591 vline~;
#X obj 582 498 i;
#X floatatom 842 440 5 1 1000 0 rise_and_fall_ms - -;
#X obj 597 455 expr $f1 - $f2;
#X obj 688 502 i;
#X obj 582 536 pack f f;
#X floatatom 634 486 5 0 0 0 - - -;
#X msg 582 559 1 \$1 \, 0 \$1 \$2;
#X obj 842 411 r risefall;
#X connect 0 0 42 0;
#X connect 0 0 43 0;
#X connect 1 0 3 0;
#X connect 2 0 1 1;
#X connect 3 0 9 1;
#X connect 3 0 11 0;
#X connect 4 0 9 0;
#X connect 5 0 6 1;
#X connect 6 0 8 0;
#X connect 7 0 6 0;
#X connect 8 0 10 0;
#X connect 8 0 24 0;
#X connect 9 0 0 0;
#X connect 10 0 11 0;
#X connect 10 1 11 1;
#X connect 11 0 12 0;
#X connect 12 0 13 1;
#X connect 13 0 15 0;
#X connect 14 0 13 0;
#X connect 15 0 0 0;
#X connect 15 0 21 0;
#X connect 16 0 17 0;
#X connect 17 0 18 0;
#X connect 18 0 15 1;
#X connect 19 0 18 0;
#X connect 20 0 14 0;
#X connect 20 1 19 0;
#X connect 20 2 4 0;
#X connect 20 3 48 0;
#X connect 20 3 51 0;
#X connect 23 0 50 0;
#X connect 24 0 23 0;
#X connect 25 0 44 0;
#X connect 26 0 1 0;
#X connect 27 0 28 0;
#X connect 27 0 20 0;
#X connect 28 0 35 0;
#X connect 29 0 34 0;
#X connect 29 0 26 0;
#X connect 30 0 27 1;
#X connect 31 0 32 0;
#X connect 32 0 33 0;
#X connect 33 0 35 1;
#X connect 33 1 38 0;
#X connect 35 0 29 0;
#X connect 36 0 37 0;
#X connect 36 0 39 0;
#X connect 37 0 38 1;
#X connect 38 0 28 1;
#X connect 39 0 38 0;
#X connect 40 0 41 0;
#X connect 41 0 27 0;
#X connect 42 0 25 0;
#X connect 43 0 45 0;
#X connect 45 0 46 0;
#X connect 47 0 45 1;
#X connect 47 0 25 1;
#X connect 48 0 52 1;
#X connect 49 0 50 1;
#X connect 49 0 51 1;
#X connect 50 0 48 1;
#X connect 50 0 53 0;
#X connect 51 0 52 0;
#X connect 52 0 54 0;
#X connect 54 0 47 0;
#X connect 55 0 49 0;
#X restore 707 359 pd grain;
#X obj 798 340 tgl 15 0 empty empty empty 17 7 0 10 -262144 -1 -1 0
1;
#N canvas 39 23 1241 755 grain 0;
#X obj 79 420 line~;
#X obj 97 227 *;
#X obj 129 211 r file_size;
#X floatatom 97 258 10 0 0 0 - - -;
#X obj 79 151 bng 15 250 50 0 empty empty empty 17 7 0 10 -262144 -1
-1;
#X obj 266 186 r max_lenght;
#X obj 251 211 *;
#X obj 251 142 r lenght;
#X floatatom 251 239 10 0 0 1 - - -;
#X obj 79 325 i;
#X obj 251 269 t b f;
#X obj 230 299 +;
#X floatatom 230 325 10 0 0 0 - - -;
#X obj 212 354 i;
#X obj 212 148 bng 15 250 50 0 empty empty empty 17 7 0 10 -262144
-1 -1;
#X obj 212 383 pack 0 0;
#X obj 373 279 r speed;
#X obj 373 309 * 1000;
#X floatatom 364 356 10 0 0 0 - - -;
#X obj 364 148 bng 15 250 50 0 empty empty empty 17 7 0 10 -262144
-1 -1;
#X obj 82 83 t b b b b;
#X obj 212 411 t b;
#X text 488 521 /// envelope;
#X floatatom 441 289 5 0 0 0 - - -;
#X obj 441 256 / 44.1;
#X obj 79 624 *~;
#X obj 698 354 hsl 195 15 0 1 0 0 empty empty grain_position -2 -8
0 10 -262144 -1 -1 0 1;
#X obj 694 67 metro;
#X obj 694 140 random 1000;
#X obj 694 236 / 1000;
#X obj 788 26 r freq_rate;
#X obj 800 78 r range_start;
#X obj 800 107 * 1000;
#X obj 800 131 t f f;
#X floatatom 752 253 5 0 0 0 - - -;
#X obj 694 193 + 0;
#X obj 890 102 r range_limit;
#X obj 960 124 * 1000;
#X obj 828 175 expr $f2 - $f1;
#X obj 890 134 t b;
#X obj 694 18 inlet;
#X obj 694 42 t a;
#X obj 79 466 tabread4~ channelL;
#X obj 221 466 tabread4~ channelR;
#X obj 79 692 throw~ Lout;
#X obj 221 624 *~;
#X obj 221 692 throw~ Rout;
#X obj 582 591 vline~;
#X obj 582 498 i;
#X floatatom 842 440 5 1 1000 0 rise_and_fall_ms - -;
#X obj 597 455 expr $f1 - $f2;
#X obj 688 502 i;
#X obj 582 536 pack f f;
#X floatatom 634 486 5 0 0 0 - - -;
#X msg 582 559 1 \$1 \, 0 \$1 \$2;
#X obj 842 411 r risefall;
#X connect 0 0 42 0;
#X connect 0 0 43 0;
#X connect 1 0 3 0;
#X connect 2 0 1 1;
#X connect 3 0 9 1;
#X connect 3 0 11 0;
#X connect 4 0 9 0;
#X connect 5 0 6 1;
#X connect 6 0 8 0;
#X connect 7 0 6 0;
#X connect 8 0 10 0;
#X connect 8 0 24 0;
#X connect 9 0 0 0;
#X connect 10 0 11 0;
#X connect 10 1 11 1;
#X connect 11 0 12 0;
#X connect 12 0 13 1;
#X connect 13 0 15 0;
#X connect 14 0 13 0;
#X connect 15 0 0 0;
#X connect 15 0 21 0;
#X connect 16 0 17 0;
#X connect 17 0 18 0;
#X connect 18 0 15 1;
#X connect 19 0 18 0;
#X connect 20 0 14 0;
#X connect 20 1 19 0;
#X connect 20 2 4 0;
#X connect 20 3 48 0;
#X connect 20 3 51 0;
#X connect 23 0 50 0;
#X connect 24 0 23 0;
#X connect 25 0 44 0;
#X connect 26 0 1 0;
#X connect 27 0 28 0;
#X connect 27 0 20 0;
#X connect 28 0 35 0;
#X connect 29 0 34 0;
#X connect 29 0 26 0;
#X connect 30 0 27 1;
#X connect 31 0 32 0;
#X connect 32 0 33 0;
#X connect 33 0 35 1;
#X connect 33 1 38 0;
#X connect 35 0 29 0;
#X connect 36 0 37 0;
#X connect 36 0 39 0;
#X connect 37 0 38 1;
#X connect 38 0 28 1;
#X connect 39 0 38 0;
#X connect 40 0 41 0;
#X connect 41 0 27 0;
#X connect 42 0 25 0;
#X connect 43 0 45 0;
#X connect 45 0 46 0;
#X connect 47 0 45 1;
#X connect 47 0 25 1;
#X connect 48 0 52 1;
#X connect 49 0 50 1;
#X connect 49 0 51 1;
#X connect 50 0 48 1;
#X connect 50 0 53 0;
#X connect 51 0 52 0;
#X connect 52 0 54 0;
#X connect 54 0 47 0;
#X connect 55 0 49 0;
#X restore 798 365 pd grain;
#X obj 858 340 tgl 15 0 empty empty empty 17 7 0 10 -262144 -1 -1 0
1;
#N canvas 39 23 1241 755 grain 0;
#X obj 79 420 line~;
#X obj 97 227 *;
#X obj 129 211 r file_size;
#X floatatom 97 258 10 0 0 0 - - -;
#X obj 79 151 bng 15 250 50 0 empty empty empty 17 7 0 10 -262144 -1
-1;
#X obj 266 186 r max_lenght;
#X obj 251 211 *;
#X obj 251 142 r lenght;
#X floatatom 251 239 10 0 0 1 - - -;
#X obj 79 325 i;
#X obj 251 269 t b f;
#X obj 230 299 +;
#X floatatom 230 325 10 0 0 0 - - -;
#X obj 212 354 i;
#X obj 212 148 bng 15 250 50 0 empty empty empty 17 7 0 10 -262144
-1 -1;
#X obj 212 383 pack 0 0;
#X obj 373 279 r speed;
#X obj 373 309 * 1000;
#X floatatom 364 356 10 0 0 0 - - -;
#X obj 364 148 bng 15 250 50 0 empty empty empty 17 7 0 10 -262144
-1 -1;
#X obj 82 83 t b b b b;
#X obj 212 411 t b;
#X text 488 521 /// envelope;
#X floatatom 441 289 5 0 0 0 - - -;
#X obj 441 256 / 44.1;
#X obj 79 624 *~;
#X obj 698 354 hsl 195 15 0 1 0 0 empty empty grain_position -2 -8
0 10 -262144 -1 -1 0 1;
#X obj 694 67 metro;
#X obj 694 140 random 1000;
#X obj 694 236 / 1000;
#X obj 788 26 r freq_rate;
#X obj 800 78 r range_start;
#X obj 800 107 * 1000;
#X obj 800 131 t f f;
#X floatatom 752 253 5 0 0 0 - - -;
#X obj 694 193 + 0;
#X obj 890 102 r range_limit;
#X obj 960 124 * 1000;
#X obj 828 175 expr $f2 - $f1;
#X obj 890 134 t b;
#X obj 694 18 inlet;
#X obj 694 42 t a;
#X obj 79 466 tabread4~ channelL;
#X obj 221 466 tabread4~ channelR;
#X obj 79 692 throw~ Lout;
#X obj 221 624 *~;
#X obj 221 692 throw~ Rout;
#X obj 582 591 vline~;
#X obj 582 498 i;
#X floatatom 842 440 5 1 1000 0 rise_and_fall_ms - -;
#X obj 597 455 expr $f1 - $f2;
#X obj 688 502 i;
#X obj 582 536 pack f f;
#X floatatom 634 486 5 0 0 0 - - -;
#X msg 582 559 1 \$1 \, 0 \$1 \$2;
#X obj 842 411 r risefall;
#X connect 0 0 42 0;
#X connect 0 0 43 0;
#X connect 1 0 3 0;
#X connect 2 0 1 1;
#X connect 3 0 9 1;
#X connect 3 0 11 0;
#X connect 4 0 9 0;
#X connect 5 0 6 1;
#X connect 6 0 8 0;
#X connect 7 0 6 0;
#X connect 8 0 10 0;
#X connect 8 0 24 0;
#X connect 9 0 0 0;
#X connect 10 0 11 0;
#X connect 10 1 11 1;
#X connect 11 0 12 0;
#X connect 12 0 13 1;
#X connect 13 0 15 0;
#X connect 14 0 13 0;
#X connect 15 0 0 0;
#X connect 15 0 21 0;
#X connect 16 0 17 0;
#X connect 17 0 18 0;
#X connect 18 0 15 1;
#X connect 19 0 18 0;
#X connect 20 0 14 0;
#X connect 20 1 19 0;
#X connect 20 2 4 0;
#X connect 20 3 48 0;
#X connect 20 3 51 0;
#X connect 23 0 50 0;
#X connect 24 0 23 0;
#X connect 25 0 44 0;
#X connect 26 0 1 0;
#X connect 27 0 28 0;
#X connect 27 0 20 0;
#X connect 28 0 35 0;
#X connect 29 0 34 0;
#X connect 29 0 26 0;
#X connect 30 0 27 1;
#X connect 31 0 32 0;
#X connect 32 0 33 0;
#X connect 33 0 35 1;
#X connect 33 1 38 0;
#X connect 35 0 29 0;
#X connect 36 0 37 0;
#X connect 36 0 39 0;
#X connect 37 0 38 1;
#X connect 38 0 28 1;
#X connect 39 0 38 0;
#X connect 40 0 41 0;
#X connect 41 0 27 0;
#X connect 42 0 25 0;
#X connect 43 0 45 0;
#X connect 45 0 46 0;
#X connect 47 0 45 1;
#X connect 47 0 25 1;
#X connect 48 0 52 1;
#X connect 49 0 50 1;
#X connect 49 0 51 1;
#X connect 50 0 48 1;
#X connect 50 0 53 0;
#X connect 51 0 52 0;
#X connect 52 0 54 0;
#X connect 54 0 47 0;
#X connect 55 0 49 0;
#X restore 858 365 pd grain;
#X obj 918 340 tgl 15 0 empty empty empty 17 7 0 10 -262144 -1 -1 0
1;
#N canvas 39 23 1241 755 grain 0;
#X obj 79 420 line~;
#X obj 97 227 *;
#X obj 129 211 r file_size;
#X floatatom 97 258 10 0 0 0 - - -;
#X obj 79 151 bng 15 250 50 0 empty empty empty 17 7 0 10 -262144 -1
-1;
#X obj 266 186 r max_lenght;
#X obj 251 211 *;
#X obj 251 142 r lenght;
#X floatatom 251 239 10 0 0 1 - - -;
#X obj 79 325 i;
#X obj 251 269 t b f;
#X obj 230 299 +;
#X floatatom 230 325 10 0 0 0 - - -;
#X obj 212 354 i;
#X obj 212 148 bng 15 250 50 0 empty empty empty 17 7 0 10 -262144
-1 -1;
#X obj 212 383 pack 0 0;
#X obj 373 279 r speed;
#X obj 373 309 * 1000;
#X floatatom 364 356 10 0 0 0 - - -;
#X obj 364 148 bng 15 250 50 0 empty empty empty 17 7 0 10 -262144
-1 -1;
#X obj 82 83 t b b b b;
#X obj 212 411 t b;
#X text 488 521 /// envelope;
#X floatatom 441 289 5 0 0 0 - - -;
#X obj 441 256 / 44.1;
#X obj 79 624 *~;
#X obj 698 354 hsl 195 15 0 1 0 0 empty empty grain_position -2 -8
0 10 -262144 -1 -1 0 1;
#X obj 694 67 metro;
#X obj 694 140 random 1000;
#X obj 694 236 / 1000;
#X obj 788 26 r freq_rate;
#X obj 800 78 r range_start;
#X obj 800 107 * 1000;
#X obj 800 131 t f f;
#X floatatom 752 253 5 0 0 0 - - -;
#X obj 694 193 + 0;
#X obj 890 102 r range_limit;
#X obj 960 124 * 1000;
#X obj 828 175 expr $f2 - $f1;
#X obj 890 134 t b;
#X obj 694 18 inlet;
#X obj 694 42 t a;
#X obj 79 466 tabread4~ channelL;
#X obj 221 466 tabread4~ channelR;
#X obj 79 692 throw~ Lout;
#X obj 221 624 *~;
#X obj 221 692 throw~ Rout;
#X obj 582 591 vline~;
#X obj 582 498 i;
#X floatatom 842 440 5 1 1000 0 rise_and_fall_ms - -;
#X obj 597 455 expr $f1 - $f2;
#X obj 688 502 i;
#X obj 582 536 pack f f;
#X floatatom 634 486 5 0 0 0 - - -;
#X msg 582 559 1 \$1 \, 0 \$1 \$2;
#X obj 842 411 r risefall;
#X connect 0 0 42 0;
#X connect 0 0 43 0;
#X connect 1 0 3 0;
#X connect 2 0 1 1;
#X connect 3 0 9 1;
#X connect 3 0 11 0;
#X connect 4 0 9 0;
#X connect 5 0 6 1;
#X connect 6 0 8 0;
#X connect 7 0 6 0;
#X connect 8 0 10 0;
#X connect 8 0 24 0;
#X connect 9 0 0 0;
#X connect 10 0 11 0;
#X connect 10 1 11 1;
#X connect 11 0 12 0;
#X connect 12 0 13 1;
#X connect 13 0 15 0;
#X connect 14 0 13 0;
#X connect 15 0 0 0;
#X connect 15 0 21 0;
#X connect 16 0 17 0;
#X connect 17 0 18 0;
#X connect 18 0 15 1;
#X connect 19 0 18 0;
#X connect 20 0 14 0;
#X connect 20 1 19 0;
#X connect 20 2 4 0;
#X connect 20 3 48 0;
#X connect 20 3 51 0;
#X connect 23 0 50 0;
#X connect 24 0 23 0;
#X connect 25 0 44 0;
#X connect 26 0 1 0;
#X connect 27 0 28 0;
#X connect 27 0 20 0;
#X connect 28 0 35 0;
#X connect 29 0 34 0;
#X connect 29 0 26 0;
#X connect 30 0 27 1;
#X connect 31 0 32 0;
#X connect 32 0 33 0;
#X connect 33 0 35 1;
#X connect 33 1 38 0;
#X connect 35 0 29 0;
#X connect 36 0 37 0;
#X connect 36 0 39 0;
#X connect 37 0 38 1;
#X connect 38 0 28 1;
#X connect 39 0 38 0;
#X connect 40 0 41 0;
#X connect 41 0 27 0;
#X connect 42 0 25 0;
#X connect 43 0 45 0;
#X connect 45 0 46 0;
#X connect 47 0 45 1;
#X connect 47 0 25 1;
#X connect 48 0 52 1;
#X connect 49 0 50 1;
#X connect 49 0 51 1;
#X connect 50 0 48 1;
#X connect 50 0 53 0;
#X connect 51 0 52 0;
#X connect 52 0 54 0;
#X connect 54 0 47 0;
#X connect 55 0 49 0;
#X restore 918 365 pd grain;
#X obj 978 340 tgl 15 0 empty empty empty 17 7 0 10 -262144 -1 -1 0
1;
#N canvas 39 23 1241 755 grain 0;
#X obj 79 420 line~;
#X obj 97 227 *;
#X obj 129 211 r file_size;
#X floatatom 97 258 10 0 0 0 - - -;
#X obj 79 151 bng 15 250 50 0 empty empty empty 17 7 0 10 -262144 -1
-1;
#X obj 266 186 r max_lenght;
#X obj 251 211 *;
#X obj 251 142 r lenght;
#X floatatom 251 239 10 0 0 1 - - -;
#X obj 79 325 i;
#X obj 251 269 t b f;
#X obj 230 299 +;
#X floatatom 230 325 10 0 0 0 - - -;
#X obj 212 354 i;
#X obj 212 148 bng 15 250 50 0 empty empty empty 17 7 0 10 -262144
-1 -1;
#X obj 212 383 pack 0 0;
#X obj 373 279 r speed;
#X obj 373 309 * 1000;
#X floatatom 364 356 10 0 0 0 - - -;
#X obj 364 148 bng 15 250 50 0 empty empty empty 17 7 0 10 -262144
-1 -1;
#X obj 82 83 t b b b b;
#X obj 212 411 t b;
#X text 488 521 /// envelope;
#X floatatom 441 289 5 0 0 0 - - -;
#X obj 441 256 / 44.1;
#X obj 79 624 *~;
#X obj 698 354 hsl 195 15 0 1 0 0 empty empty grain_position -2 -8
0 10 -262144 -1 -1 0 1;
#X obj 694 67 metro;
#X obj 694 140 random 1000;
#X obj 694 236 / 1000;
#X obj 788 26 r freq_rate;
#X obj 800 78 r range_start;
#X obj 800 107 * 1000;
#X obj 800 131 t f f;
#X floatatom 752 253 5 0 0 0 - - -;
#X obj 694 193 + 0;
#X obj 890 102 r range_limit;
#X obj 960 124 * 1000;
#X obj 828 175 expr $f2 - $f1;
#X obj 890 134 t b;
#X obj 694 18 inlet;
#X obj 694 42 t a;
#X obj 79 466 tabread4~ channelL;
#X obj 221 466 tabread4~ channelR;
#X obj 79 692 throw~ Lout;
#X obj 221 624 *~;
#X obj 221 692 throw~ Rout;
#X obj 582 591 vline~;
#X obj 582 498 i;
#X floatatom 842 440 5 1 1000 0 rise_and_fall_ms - -;
#X obj 597 455 expr $f1 - $f2;
#X obj 688 502 i;
#X obj 582 536 pack f f;
#X floatatom 634 486 5 0 0 0 - - -;
#X msg 582 559 1 \$1 \, 0 \$1 \$2;
#X obj 842 411 r risefall;
#X connect 0 0 42 0;
#X connect 0 0 43 0;
#X connect 1 0 3 0;
#X connect 2 0 1 1;
#X connect 3 0 9 1;
#X connect 3 0 11 0;
#X connect 4 0 9 0;
#X connect 5 0 6 1;
#X connect 6 0 8 0;
#X connect 7 0 6 0;
#X connect 8 0 10 0;
#X connect 8 0 24 0;
#X connect 9 0 0 0;
#X connect 10 0 11 0;
#X connect 10 1 11 1;
#X connect 11 0 12 0;
#X connect 12 0 13 1;
#X connect 13 0 15 0;
#X connect 14 0 13 0;
#X connect 15 0 0 0;
#X connect 15 0 21 0;
#X connect 16 0 17 0;
#X connect 17 0 18 0;
#X connect 18 0 15 1;
#X connect 19 0 18 0;
#X connect 20 0 14 0;
#X connect 20 1 19 0;
#X connect 20 2 4 0;
#X connect 20 3 48 0;
#X connect 20 3 51 0;
#X connect 23 0 50 0;
#X connect 24 0 23 0;
#X connect 25 0 44 0;
#X connect 26 0 1 0;
#X connect 27 0 28 0;
#X connect 27 0 20 0;
#X connect 28 0 35 0;
#X connect 29 0 34 0;
#X connect 29 0 26 0;
#X connect 30 0 27 1;
#X connect 31 0 32 0;
#X connect 32 0 33 0;
#X connect 33 0 35 1;
#X connect 33 1 38 0;
#X connect 35 0 29 0;
#X connect 36 0 37 0;
#X connect 36 0 39 0;
#X connect 37 0 38 1;
#X connect 38 0 28 1;
#X connect 39 0 38 0;
#X connect 40 0 41 0;
#X connect 41 0 27 0;
#X connect 42 0 25 0;
#X connect 43 0 45 0;
#X connect 45 0 46 0;
#X connect 47 0 45 1;
#X connect 47 0 25 1;
#X connect 48 0 52 1;
#X connect 49 0 50 1;
#X connect 49 0 51 1;
#X connect 50 0 48 1;
#X connect 50 0 53 0;
#X connect 51 0 52 0;
#X connect 52 0 54 0;
#X connect 54 0 47 0;
#X connect 55 0 49 0;
#X restore 978 365 pd grain;
#X obj 1038 340 tgl 15 0 empty empty empty 17 7 0 10 -262144 -1 -1
0 1;
#N canvas 39 23 1241 755 grain 0;
#X obj 79 420 line~;
#X obj 97 227 *;
#X obj 129 211 r file_size;
#X floatatom 97 258 10 0 0 0 - - -;
#X obj 79 151 bng 15 250 50 0 empty empty empty 17 7 0 10 -262144 -1
-1;
#X obj 266 186 r max_lenght;
#X obj 251 211 *;
#X obj 251 142 r lenght;
#X floatatom 251 239 10 0 0 1 - - -;
#X obj 79 325 i;
#X obj 251 269 t b f;
#X obj 230 299 +;
#X floatatom 230 325 10 0 0 0 - - -;
#X obj 212 354 i;
#X obj 212 148 bng 15 250 50 0 empty empty empty 17 7 0 10 -262144
-1 -1;
#X obj 212 383 pack 0 0;
#X obj 373 279 r speed;
#X obj 373 309 * 1000;
#X floatatom 364 356 10 0 0 0 - - -;
#X obj 364 148 bng 15 250 50 0 empty empty empty 17 7 0 10 -262144
-1 -1;
#X obj 82 83 t b b b b;
#X obj 212 411 t b;
#X text 488 521 /// envelope;
#X floatatom 441 289 5 0 0 0 - - -;
#X obj 441 256 / 44.1;
#X obj 79 624 *~;
#X obj 698 354 hsl 195 15 0 1 0 0 empty empty grain_position -2 -8
0 10 -262144 -1 -1 0 1;
#X obj 694 67 metro;
#X obj 694 140 random 1000;
#X obj 694 236 / 1000;
#X obj 788 26 r freq_rate;
#X obj 800 78 r range_start;
#X obj 800 107 * 1000;
#X obj 800 131 t f f;
#X floatatom 752 253 5 0 0 0 - - -;
#X obj 694 193 + 0;
#X obj 890 102 r range_limit;
#X obj 960 124 * 1000;
#X obj 828 175 expr $f2 - $f1;
#X obj 890 134 t b;
#X obj 694 18 inlet;
#X obj 694 42 t a;
#X obj 79 466 tabread4~ channelL;
#X obj 221 466 tabread4~ channelR;
#X obj 79 692 throw~ Lout;
#X obj 221 624 *~;
#X obj 221 692 throw~ Rout;
#X obj 582 591 vline~;
#X obj 582 498 i;
#X floatatom 842 440 5 1 1000 0 rise_and_fall_ms - -;
#X obj 597 455 expr $f1 - $f2;
#X obj 688 502 i;
#X obj 582 536 pack f f;
#X floatatom 634 486 5 0 0 0 - - -;
#X msg 582 559 1 \$1 \, 0 \$1 \$2;
#X obj 842 411 r risefall;
#X connect 0 0 42 0;
#X connect 0 0 43 0;
#X connect 1 0 3 0;
#X connect 2 0 1 1;
#X connect 3 0 9 1;
#X connect 3 0 11 0;
#X connect 4 0 9 0;
#X connect 5 0 6 1;
#X connect 6 0 8 0;
#X connect 7 0 6 0;
#X connect 8 0 10 0;
#X connect 8 0 24 0;
#X connect 9 0 0 0;
#X connect 10 0 11 0;
#X connect 10 1 11 1;
#X connect 11 0 12 0;
#X connect 12 0 13 1;
#X connect 13 0 15 0;
#X connect 14 0 13 0;
#X connect 15 0 0 0;
#X connect 15 0 21 0;
#X connect 16 0 17 0;
#X connect 17 0 18 0;
#X connect 18 0 15 1;
#X connect 19 0 18 0;
#X connect 20 0 14 0;
#X connect 20 1 19 0;
#X connect 20 2 4 0;
#X connect 20 3 48 0;
#X connect 20 3 51 0;
#X connect 23 0 50 0;
#X connect 24 0 23 0;
#X connect 25 0 44 0;
#X connect 26 0 1 0;
#X connect 27 0 28 0;
#X connect 27 0 20 0;
#X connect 28 0 35 0;
#X connect 29 0 34 0;
#X connect 29 0 26 0;
#X connect 30 0 27 1;
#X connect 31 0 32 0;
#X connect 32 0 33 0;
#X connect 33 0 35 1;
#X connect 33 1 38 0;
#X connect 35 0 29 0;
#X connect 36 0 37 0;
#X connect 36 0 39 0;
#X connect 37 0 38 1;
#X connect 38 0 28 1;
#X connect 39 0 38 0;
#X connect 40 0 41 0;
#X connect 41 0 27 0;
#X connect 42 0 25 0;
#X connect 43 0 45 0;
#X connect 45 0 46 0;
#X connect 47 0 45 1;
#X connect 47 0 25 1;
#X connect 48 0 52 1;
#X connect 49 0 50 1;
#X connect 49 0 51 1;
#X connect 50 0 48 1;
#X connect 50 0 53 0;
#X connect 51 0 52 0;
#X connect 52 0 54 0;
#X connect 54 0 47 0;
#X connect 55 0 49 0;
#X restore 1038 365 pd grain;
#X obj 1098 340 tgl 15 0 empty empty empty 17 7 0 10 -262144 -1 -1
0 1;
#N canvas 39 23 1241 755 grain 0;
#X obj 79 420 line~;
#X obj 97 227 *;
#X obj 129 211 r file_size;
#X floatatom 97 258 10 0 0 0 - - -;
#X obj 79 151 bng 15 250 50 0 empty empty empty 17 7 0 10 -262144 -1
-1;
#X obj 266 186 r max_lenght;
#X obj 251 211 *;
#X obj 251 142 r lenght;
#X floatatom 251 239 10 0 0 1 - - -;
#X obj 79 325 i;
#X obj 251 269 t b f;
#X obj 230 299 +;
#X floatatom 230 325 10 0 0 0 - - -;
#X obj 212 354 i;
#X obj 212 148 bng 15 250 50 0 empty empty empty 17 7 0 10 -262144
-1 -1;
#X obj 212 383 pack 0 0;
#X obj 373 279 r speed;
#X obj 373 309 * 1000;
#X floatatom 364 356 10 0 0 0 - - -;
#X obj 364 148 bng 15 250 50 0 empty empty empty 17 7 0 10 -262144
-1 -1;
#X obj 82 83 t b b b b;
#X obj 212 411 t b;
#X text 488 521 /// envelope;
#X floatatom 441 289 5 0 0 0 - - -;
#X obj 441 256 / 44.1;
#X obj 79 624 *~;
#X obj 698 354 hsl 195 15 0 1 0 0 empty empty grain_position -2 -8
0 10 -262144 -1 -1 0 1;
#X obj 694 67 metro;
#X obj 694 140 random 1000;
#X obj 694 236 / 1000;
#X obj 788 26 r freq_rate;
#X obj 800 78 r range_start;
#X obj 800 107 * 1000;
#X obj 800 131 t f f;
#X floatatom 752 253 5 0 0 0 - - -;
#X obj 694 193 + 0;
#X obj 890 102 r range_limit;
#X obj 960 124 * 1000;
#X obj 828 175 expr $f2 - $f1;
#X obj 890 134 t b;
#X obj 694 18 inlet;
#X obj 694 42 t a;
#X obj 79 466 tabread4~ channelL;
#X obj 221 466 tabread4~ channelR;
#X obj 79 692 throw~ Lout;
#X obj 221 624 *~;
#X obj 221 692 throw~ Rout;
#X obj 582 591 vline~;
#X obj 582 498 i;
#X floatatom 842 440 5 1 1000 0 rise_and_fall_ms - -;
#X obj 597 455 expr $f1 - $f2;
#X obj 688 502 i;
#X obj 582 536 pack f f;
#X floatatom 634 486 5 0 0 0 - - -;
#X msg 582 559 1 \$1 \, 0 \$1 \$2;
#X obj 842 411 r risefall;
#X connect 0 0 42 0;
#X connect 0 0 43 0;
#X connect 1 0 3 0;
#X connect 2 0 1 1;
#X connect 3 0 9 1;
#X connect 3 0 11 0;
#X connect 4 0 9 0;
#X connect 5 0 6 1;
#X connect 6 0 8 0;
#X connect 7 0 6 0;
#X connect 8 0 10 0;
#X connect 8 0 24 0;
#X connect 9 0 0 0;
#X connect 10 0 11 0;
#X connect 10 1 11 1;
#X connect 11 0 12 0;
#X connect 12 0 13 1;
#X connect 13 0 15 0;
#X connect 14 0 13 0;
#X connect 15 0 0 0;
#X connect 15 0 21 0;
#X connect 16 0 17 0;
#X connect 17 0 18 0;
#X connect 18 0 15 1;
#X connect 19 0 18 0;
#X connect 20 0 14 0;
#X connect 20 1 19 0;
#X connect 20 2 4 0;
#X connect 20 3 48 0;
#X connect 20 3 51 0;
#X connect 23 0 50 0;
#X connect 24 0 23 0;
#X connect 25 0 44 0;
#X connect 26 0 1 0;
#X connect 27 0 28 0;
#X connect 27 0 20 0;
#X connect 28 0 35 0;
#X connect 29 0 34 0;
#X connect 29 0 26 0;
#X connect 30 0 27 1;
#X connect 31 0 32 0;
#X connect 32 0 33 0;
#X connect 33 0 35 1;
#X connect 33 1 38 0;
#X connect 35 0 29 0;
#X connect 36 0 37 0;
#X connect 36 0 39 0;
#X connect 37 0 38 1;
#X connect 38 0 28 1;
#X connect 39 0 38 0;
#X connect 40 0 41 0;
#X connect 41 0 27 0;
#X connect 42 0 25 0;
#X connect 43 0 45 0;
#X connect 45 0 46 0;
#X connect 47 0 45 1;
#X connect 47 0 25 1;
#X connect 48 0 52 1;
#X connect 49 0 50 1;
#X connect 49 0 51 1;
#X connect 50 0 48 1;
#X connect 50 0 53 0;
#X connect 51 0 52 0;
#X connect 52 0 54 0;
#X connect 54 0 47 0;
#X connect 55 0 49 0;
#X restore 1098 365 pd grain;
#X obj 1158 340 tgl 15 0 empty empty empty 17 7 0 10 -262144 -1 -1
0 1;
#N canvas 39 23 1241 755 grain 0;
#X obj 79 420 line~;
#X obj 97 227 *;
#X obj 129 211 r file_size;
#X floatatom 97 258 10 0 0 0 - - -;
#X obj 79 151 bng 15 250 50 0 empty empty empty 17 7 0 10 -262144 -1
-1;
#X obj 266 186 r max_lenght;
#X obj 251 211 *;
#X obj 251 142 r lenght;
#X floatatom 251 239 10 0 0 1 - - -;
#X obj 79 325 i;
#X obj 251 269 t b f;
#X obj 230 299 +;
#X floatatom 230 325 10 0 0 0 - - -;
#X obj 212 354 i;
#X obj 212 148 bng 15 250 50 0 empty empty empty 17 7 0 10 -262144
-1 -1;
#X obj 212 383 pack 0 0;
#X obj 373 279 r speed;
#X obj 373 309 * 1000;
#X floatatom 364 356 10 0 0 0 - - -;
#X obj 364 148 bng 15 250 50 0 empty empty empty 17 7 0 10 -262144
-1 -1;
#X obj 82 83 t b b b b;
#X obj 212 411 t b;
#X text 488 521 /// envelope;
#X floatatom 441 289 5 0 0 0 - - -;
#X obj 441 256 / 44.1;
#X obj 79 624 *~;
#X obj 698 354 hsl 195 15 0 1 0 0 empty empty grain_position -2 -8
0 10 -262144 -1 -1 0 1;
#X obj 694 67 metro;
#X obj 694 140 random 1000;
#X obj 694 236 / 1000;
#X obj 788 26 r freq_rate;
#X obj 800 78 r range_start;
#X obj 800 107 * 1000;
#X obj 800 131 t f f;
#X floatatom 752 253 5 0 0 0 - - -;
#X obj 694 193 + 0;
#X obj 890 102 r range_limit;
#X obj 960 124 * 1000;
#X obj 828 175 expr $f2 - $f1;
#X obj 890 134 t b;
#X obj 694 18 inlet;
#X obj 694 42 t a;
#X obj 79 466 tabread4~ channelL;
#X obj 221 466 tabread4~ channelR;
#X obj 79 692 throw~ Lout;
#X obj 221 624 *~;
#X obj 221 692 throw~ Rout;
#X obj 582 591 vline~;
#X obj 582 498 i;
#X floatatom 842 440 5 1 1000 0 rise_and_fall_ms - -;
#X obj 597 455 expr $f1 - $f2;
#X obj 688 502 i;
#X obj 582 536 pack f f;
#X floatatom 634 486 5 0 0 0 - - -;
#X msg 582 559 1 \$1 \, 0 \$1 \$2;
#X obj 842 411 r risefall;
#X connect 0 0 42 0;
#X connect 0 0 43 0;
#X connect 1 0 3 0;
#X connect 2 0 1 1;
#X connect 3 0 9 1;
#X connect 3 0 11 0;
#X connect 4 0 9 0;
#X connect 5 0 6 1;
#X connect 6 0 8 0;
#X connect 7 0 6 0;
#X connect 8 0 10 0;
#X connect 8 0 24 0;
#X connect 9 0 0 0;
#X connect 10 0 11 0;
#X connect 10 1 11 1;
#X connect 11 0 12 0;
#X connect 12 0 13 1;
#X connect 13 0 15 0;
#X connect 14 0 13 0;
#X connect 15 0 0 0;
#X connect 15 0 21 0;
#X connect 16 0 17 0;
#X connect 17 0 18 0;
#X connect 18 0 15 1;
#X connect 19 0 18 0;
#X connect 20 0 14 0;
#X connect 20 1 19 0;
#X connect 20 2 4 0;
#X connect 20 3 48 0;
#X connect 20 3 51 0;
#X connect 23 0 50 0;
#X connect 24 0 23 0;
#X connect 25 0 44 0;
#X connect 26 0 1 0;
#X connect 27 0 28 0;
#X connect 27 0 20 0;
#X connect 28 0 35 0;
#X connect 29 0 34 0;
#X connect 29 0 26 0;
#X connect 30 0 27 1;
#X connect 31 0 32 0;
#X connect 32 0 33 0;
#X connect 33 0 35 1;
#X connect 33 1 38 0;
#X connect 35 0 29 0;
#X connect 36 0 37 0;
#X connect 36 0 39 0;
#X connect 37 0 38 1;
#X connect 38 0 28 1;
#X connect 39 0 38 0;
#X connect 40 0 41 0;
#X connect 41 0 27 0;
#X connect 42 0 25 0;
#X connect 43 0 45 0;
#X connect 45 0 46 0;
#X connect 47 0 45 1;
#X connect 47 0 25 1;
#X connect 48 0 52 1;
#X connect 49 0 50 1;
#X connect 49 0 51 1;
#X connect 50 0 48 1;
#X connect 50 0 53 0;
#X connect 51 0 52 0;
#X connect 52 0 54 0;
#X connect 54 0 47 0;
#X connect 55 0 49 0;
#X restore 1158 365 pd grain;
#X obj 1218 340 tgl 15 0 empty empty empty 17 7 0 10 -262144 -1 -1
0 1;
#N canvas 39 23 1241 755 grain 0;
#X obj 79 420 line~;
#X obj 97 227 *;
#X obj 129 211 r file_size;
#X floatatom 97 258 10 0 0 0 - - -;
#X obj 79 151 bng 15 250 50 0 empty empty empty 17 7 0 10 -262144 -1
-1;
#X obj 266 186 r max_lenght;
#X obj 251 211 *;
#X obj 251 142 r lenght;
#X floatatom 251 239 10 0 0 1 - - -;
#X obj 79 325 i;
#X obj 251 269 t b f;
#X obj 230 299 +;
#X floatatom 230 325 10 0 0 0 - - -;
#X obj 212 354 i;
#X obj 212 148 bng 15 250 50 0 empty empty empty 17 7 0 10 -262144
-1 -1;
#X obj 212 383 pack 0 0;
#X obj 373 279 r speed;
#X obj 373 309 * 1000;
#X floatatom 364 356 10 0 0 0 - - -;
#X obj 364 148 bng 15 250 50 0 empty empty empty 17 7 0 10 -262144
-1 -1;
#X obj 82 83 t b b b b;
#X obj 212 411 t b;
#X text 488 521 /// envelope;
#X floatatom 441 289 5 0 0 0 - - -;
#X obj 441 256 / 44.1;
#X obj 79 624 *~;
#X obj 698 354 hsl 195 15 0 1 0 0 empty empty grain_position -2 -8
0 10 -262144 -1 -1 0 1;
#X obj 694 67 metro;
#X obj 694 140 random 1000;
#X obj 694 236 / 1000;
#X obj 788 26 r freq_rate;
#X obj 800 78 r range_start;
#X obj 800 107 * 1000;
#X obj 800 131 t f f;
#X floatatom 752 253 5 0 0 0 - - -;
#X obj 694 193 + 0;
#X obj 890 102 r range_limit;
#X obj 960 124 * 1000;
#X obj 828 175 expr $f2 - $f1;
#X obj 890 134 t b;
#X obj 694 18 inlet;
#X obj 694 42 t a;
#X obj 79 466 tabread4~ channelL;
#X obj 221 466 tabread4~ channelR;
#X obj 79 692 throw~ Lout;
#X obj 221 624 *~;
#X obj 221 692 throw~ Rout;
#X obj 582 591 vline~;
#X obj 582 498 i;
#X floatatom 842 440 5 1 1000 0 rise_and_fall_ms - -;
#X obj 597 455 expr $f1 - $f2;
#X obj 688 502 i;
#X obj 582 536 pack f f;
#X floatatom 634 486 5 0 0 0 - - -;
#X msg 582 559 1 \$1 \, 0 \$1 \$2;
#X obj 842 411 r risefall;
#X connect 0 0 42 0;
#X connect 0 0 43 0;
#X connect 1 0 3 0;
#X connect 2 0 1 1;
#X connect 3 0 9 1;
#X connect 3 0 11 0;
#X connect 4 0 9 0;
#X connect 5 0 6 1;
#X connect 6 0 8 0;
#X connect 7 0 6 0;
#X connect 8 0 10 0;
#X connect 8 0 24 0;
#X connect 9 0 0 0;
#X connect 10 0 11 0;
#X connect 10 1 11 1;
#X connect 11 0 12 0;
#X connect 12 0 13 1;
#X connect 13 0 15 0;
#X connect 14 0 13 0;
#X connect 15 0 0 0;
#X connect 15 0 21 0;
#X connect 16 0 17 0;
#X connect 17 0 18 0;
#X connect 18 0 15 1;
#X connect 19 0 18 0;
#X connect 20 0 14 0;
#X connect 20 1 19 0;
#X connect 20 2 4 0;
#X connect 20 3 48 0;
#X connect 20 3 51 0;
#X connect 23 0 50 0;
#X connect 24 0 23 0;
#X connect 25 0 44 0;
#X connect 26 0 1 0;
#X connect 27 0 28 0;
#X connect 27 0 20 0;
#X connect 28 0 35 0;
#X connect 29 0 34 0;
#X connect 29 0 26 0;
#X connect 30 0 27 1;
#X connect 31 0 32 0;
#X connect 32 0 33 0;
#X connect 33 0 35 1;
#X connect 33 1 38 0;
#X connect 35 0 29 0;
#X connect 36 0 37 0;
#X connect 36 0 39 0;
#X connect 37 0 38 1;
#X connect 38 0 28 1;
#X connect 39 0 38 0;
#X connect 40 0 41 0;
#X connect 41 0 27 0;
#X connect 42 0 25 0;
#X connect 43 0 45 0;
#X connect 45 0 46 0;
#X connect 47 0 45 1;
#X connect 47 0 25 1;
#X connect 48 0 52 1;
#X connect 49 0 50 1;
#X connect 49 0 51 1;
#X connect 50 0 48 1;
#X connect 50 0 53 0;
#X connect 51 0 52 0;
#X connect 52 0 54 0;
#X connect 54 0 47 0;
#X connect 55 0 49 0;
#X restore 1218 365 pd grain;
#X text 216 67 GRAIN VOICES;
#X obj 180 280 loadbang;
#X obj 499 67 inlet;
#X connect 0 0 15 0;
#X connect 1 0 16 0;
#X connect 2 0 17 0;
#X connect 3 0 18 0;
#X connect 4 0 19 0;
#X connect 5 0 20 0;
#X connect 6 0 21 0;
#X connect 7 0 22 0;
#X connect 8 0 23 0;
#X connect 9 0 24 0;
#X connect 10 0 25 0;
#X connect 11 0 26 0;
#X connect 12 0 27 0;
#X connect 13 0 28 0;
#X connect 14 0 29 0;
#X connect 15 0 32 0;
#X connect 16 0 34 0;
#X connect 17 0 36 0;
#X connect 18 0 38 0;
#X connect 19 0 40 0;
#X connect 20 0 42 0;
#X connect 21 0 44 0;
#X connect 22 0 46 0;
#X connect 23 0 48 0;
#X connect 24 0 50 0;
#X connect 25 0 52 0;
#X connect 26 0 54 0;
#X connect 27 0 56 0;
#X connect 28 0 58 0;
#X connect 29 0 60 0;
#X connect 30 0 62 0;
#X connect 31 0 30 0;
#X connect 32 0 33 0;
#X connect 34 0 35 0;
#X connect 36 0 37 0;
#X connect 38 0 39 0;
#X connect 40 0 41 0;
#X connect 42 0 43 0;
#X connect 44 0 45 0;
#X connect 46 0 47 0;
#X connect 48 0 49 0;
#X connect 50 0 51 0;
#X connect 52 0 53 0;
#X connect 54 0 55 0;
#X connect 56 0 57 0;
#X connect 58 0 59 0;
#X connect 60 0 61 0;
#X connect 62 0 63 0;
#X connect 65 0 32 0;
#X connect 66 0 0 0;
#X connect 66 0 31 0;
#X connect 66 0 14 0;
#X connect 66 0 13 0;
#X connect 66 0 12 0;
#X connect 66 0 11 0;
#X connect 66 0 10 0;
#X connect 66 0 9 0;
#X connect 66 0 8 0;
#X connect 66 0 7 0;
#X connect 66 0 6 0;
#X connect 66 0 5 0;
#X connect 66 0 4 0;
#X connect 66 0 3 0;
#X connect 66 0 2 0;
#X connect 66 0 1 0;
#X restore 412 388 pd grain;
#X obj 193 338 hsl 195 15 1 16 0 0 empty empty density -2 -8 0 10 -262144
-1 -1 0 1;
#X obj 412 363 i;
#X msg 325 629 0.9;
#X connect 0 0 40 0;
#X connect 1 0 0 0;
#X connect 2 0 4 0;
#X connect 5 0 34 0;
#X connect 5 0 35 0;
#X connect 7 0 37 0;
#X connect 8 0 9 0;
#X connect 9 0 48 0;
#X connect 10 0 8 0;
#X connect 11 0 13 0;
#X connect 12 0 16 0;
#X connect 14 0 50 0;
#X connect 15 0 12 0;
#X connect 18 0 70 0;
#X connect 19 0 71 0;
#X connect 23 2 28 0;
#X connect 23 2 21 0;
#X connect 23 2 22 0;
#X connect 24 0 2 0;
#X connect 24 1 23 0;
#X connect 25 0 64 0;
#X connect 26 0 25 1;
#X connect 27 0 25 1;
#X connect 28 0 26 0;
#X connect 28 1 27 0;
#X connect 30 0 33 0;
#X connect 32 0 41 0;
#X connect 33 0 31 0;
#X connect 34 0 6 0;
#X connect 35 0 7 0;
#X connect 37 0 36 0;
#X connect 38 0 5 0;
#X connect 40 0 24 0;
#X connect 41 0 24 0;
#X connect 41 1 32 0;
#X connect 44 0 46 0;
#X connect 44 0 68 0;
#X connect 46 0 45 0;
#X connect 48 0 49 0;
#X connect 49 0 47 0;
#X connect 50 0 38 0;
#X connect 50 0 15 0;
#X connect 50 0 69 0;
#X connect 50 1 10 0;
#X connect 51 0 8 0;
#X connect 52 0 51 0;
#X connect 53 0 59 0;
#X connect 54 0 58 0;
#X connect 55 0 54 0;
#X connect 55 0 75 0;
#X connect 58 0 57 0;
#X connect 58 1 56 0;
#X connect 59 0 60 0;
#X connect 60 0 62 0;
#X connect 63 0 65 1;
#X connect 63 0 64 1;
#X connect 64 0 61 1;
#X connect 64 0 43 0;
#X connect 65 0 61 0;
#X connect 65 0 43 0;
#X connect 67 0 43 0;
#X connect 68 0 67 0;
#X connect 69 0 30 0;
#X connect 70 0 25 0;
#X connect 70 0 65 0;
#X connect 71 0 64 0;
#X connect 73 0 74 0;
#X connect 74 0 72 0;
#X connect 75 0 53 0;
